<?xml version="1.0" encoding="UTF-8"?>
<svg width="1928px" height="612px" viewBox="0 0 1928 612" version="1.1" xmlns="http://www.w3.org/2000/svg" xmlns:xlink="http://www.w3.org/1999/xlink">
    <!-- Generator: Sketch 54.1 (76490) - https://sketchapp.com -->
    <title>Group 29</title>
    <desc>Created with Sketch.</desc>
    <g id="Symbols" stroke="none" stroke-width="1" fill="none" fill-rule="evenodd">
        <g id="Group-29">
            <rect id="Rectangle" fill="#FFFFFF" x="0" y="0" width="1928" height="612"></rect>
            <g id="logo_liku_dark" transform="translate(110.000000, 33.000000)">
                <rect id="Bound" fill-rule="nonzero" x="0" y="0" width="1687" height="567"></rect>
                <g id="Group-2" transform="translate(3.000000, 97.000000)">
                    <path d="M107.114536,236.406889 C130.190055,218.247111 156.917814,215.629111 183.853087,226.973778 C198.503552,233.124 213.901066,248.624222 230.502158,242.515556 C247.933306,236.116 262.12724,218.870444 273.665,205.115556 C290.679981,184.048854 306.224984,161.833277 320.189563,138.626667 C323.136257,133.930889 326.041448,129.193556 328.905137,124.414667 L272.336913,37.5635556 C240.628825,-7.10866667 220.583005,0.828444444 220.583005,0.828444444 C220.583005,0.828444444 200.537186,-7.10866667 168.829098,37.5635556 L21.784918,263.334889 L14.7709563,274.056222 C14.7709563,274.056222 -7.84803279,312.786 3.89724044,338.592 C3.89724044,338.592 3.89724044,338.966 4.18775956,339.547778 C21.4252277,321.429556 38.842541,303.422148 56.4396995,285.525556 C72.791776,268.903333 88.7703279,250.660444 107.073033,236.282222" id="Path" fill="#1BDC8D"></path>
                    <path d="M426.229044,274.056222 L382.526667,206.985556 L366.17459,182.052222 L346.87582,152.423111 C342.93306,158.698 338.990301,164.889778 334.964536,171.123111 C311.806011,206.528444 283.169126,253.361556 241.998415,269.983778 C227.665671,276.046991 211.349156,275.204863 197.715,267.698222 C168.953607,253.153778 146.542131,239.814444 118.859809,265.745111 C86.1556557,296.413111 55.0286066,329.117333 24.2335792,361.78 C34.4432514,367.680889 49.5502459,372.418222 71.9202186,372.418222 L369.162787,372.418222 C428.926721,372.418222 437.10276,338.675111 437.10276,338.675111 C448.889536,312.869111 426.229044,274.139333 426.229044,274.139333" id="Path" fill="#005A9D"></path>
                    <g id="Group" opacity="0.3" style="mix-blend-mode: multiply;" transform="translate(24.094262, 152.213527)" fill="#80D0CB">
                        <path d="M332.078169,14.2969179 L322.82306,0.0849178744 C318.894135,6.34595491 314.923707,12.5792882 310.911776,18.7849179 C287.753251,54.1902512 259.074863,101.023362 217.945656,117.645585 C203.6181,123.715336 187.304567,122.88867 173.66224,115.401585 C144.94235,100.85714 122.489372,87.5178068 94.8070492,113.448473 C62.0613934,144.116473 30.975847,176.820696 0.180819672,209.483362 C4.96419493,212.189432 10.0485489,214.323394 15.3293169,215.841362 C44.7962568,184.591585 74.6367213,153.508029 105.971284,124.04514 C133.653607,98.1144734 164.324126,137.966251 196.530246,137.50914 C266.130328,136.470251 321.702486,35.5318068 332.161175,14.2969179" id="Path"></path>
                    </g>
                    <g id="Group" opacity="0.3" style="mix-blend-mode: multiply;" transform="translate(0.535519, 114.006763)" fill="#585181">
                        <g opacity="0.5" id="Path">
                            <path d="M315.918798,9.70145894 C301.962092,32.9131953 286.416716,55.1293039 269.394235,76.1903478 C257.856475,89.9452367 243.704044,107.190792 226.231393,113.590348 C209.630301,119.699014 194.232787,104.198792 179.582322,98.04857 C152.81306,86.82857 125.91929,89.3219034 102.84377,107.481681 C84.5410656,121.859903 68.6040164,140.227459 52.2104372,156.76657 C38.7220492,170.396792 17.1821311,193.003014 0.0830054645,210.99657 C0.318526147,215.758244 1.43006209,220.435454 3.36172131,224.793014 C3.36172131,224.793014 3.36172131,225.125459 3.65224044,225.748792 C20.8897086,207.63057 38.3070219,189.623163 55.9041803,171.72657 C72.2562568,155.104348 88.2348087,136.861459 106.537514,122.483237 C129.613033,104.323459 156.340792,101.705459 183.276066,113.050126 C197.92653,119.200348 213.324044,134.70057 229.925137,128.591903 C247.356284,122.192348 261.550219,104.946792 273.046475,91.1919034 C290.0643,70.1273462 305.609444,47.911568 319.571038,24.7030145 C322.503898,19.9933849 325.409089,15.2560515 328.286612,10.4910145 L321.646175,0.393014493 C319.737049,3.50968116 317.869426,6.62634783 315.918798,9.70145894"></path>
                        </g>
                    </g>
                </g>
                <path d="M639.56777,401.185878 C639.609587,416.19995 651.621829,428.437077 666.628388,428.753106 L769.383914,428.753106 L769.383914,464.012808 L652.994159,464.012548 C622.761982,464.104681 598.160304,439.700651 598,409.460204 L598,148.008119 L639.56777,148.008119 L639.56777,401.185878 Z M798.065675,233.495633 L835.767642,233.495633 L835.767642,464.012548 L798.065675,464.012548 L798.065675,233.495633 Z M1046.05899,233.495633 L1095.64934,233.495633 L1001.49834,314.825194 L1109.69924,463.970968 L1063.10177,463.970968 L973.149121,339.440276 L939.146686,368.462788 L939.146686,463.970968 L901.486286,463.970968 L901.486286,132 L939.146686,132 L939.146686,330.084881 L1046.05899,233.495633 Z M1217.23506,470 C1171.59365,470 1138.42257,435.031615 1138.2563,387.131997 L1138.2563,233.495633 L1175.95827,233.495633 L1175.95827,380.562431 C1175.62573,398.233731 1180.697,413.036044 1190.63169,423.181449 C1200.13146,432.469725 1213.0211,437.458735 1226.29684,436.985853 C1251.32241,435.957992 1275.57081,427.99766 1296.33853,413.992373 L1301.5345,410.416533 L1301.5345,233.495633 L1339.23647,233.495633 L1339.23647,463.970968 L1303.48819,463.970968 L1303.48819,440.520113 L1286.15443,449.210235 C1268.48812,458.232993 1242.17573,470 1217.23506,470 Z M1397.72232,148.008119 L1435.88153,148.008119 L1435.88153,184.722844 L1397.72232,184.722844 L1397.72232,148.008119 Z M1397.72232,233.495633 L1435.42429,233.495633 L1435.42429,464.012548 L1397.72232,464.012548 L1397.72232,233.495633 Z M1585.2761,228.131874 C1603.31651,228.131874 1616.03625,231.375077 1627.71679,238.942551 L1646.13131,250.667979 L1646.13131,132 L1684,132 L1683.99955,419.647189 C1684.11467,446.941832 1662.11157,469.174412 1634.82488,469.334728 L1593.83906,469.334728 C1548.98743,468.378398 1518.06101,452.495018 1499.10611,421.019314 C1486.76147,397.699166 1480.60708,371.600029 1481.23197,345.21983 C1482.31273,308.837741 1489.87807,283.598967 1505.71539,263.100258 C1525.82247,240.332888 1554.91142,227.547763 1585.2761,228.131874 Z M1646.13131,267.840325 L1637.06954,265.761348 C1622.07739,261.726072 1606.65782,259.492742 1591.13715,259.108623 L1590.51364,259.108623 C1564.1181,260.439168 1545.74515,269.919301 1534.23088,288.214295 C1524.74634,305.537496 1520.28358,325.164776 1521.34487,344.887194 C1521.34487,367.589617 1523.29855,399.980071 1542.12875,419.397712 C1554.76535,432.037889 1573.96966,438.441137 1599.15973,438.441137 L1619.56951,438.441137 C1634.09243,438.556587 1645.97142,426.897384 1646.13131,412.370771 L1646.13131,267.840325 Z M798.065675,148.008119 L836.224888,148.008119 L836.224888,184.722844 L798.065675,184.722844 L798.065675,148.008119 Z" id="Combined-Shape" fill="#005A9D"></path>
            </g>
        </g>
    </g>
</svg>